<mxfile host="app.diagrams.net" agent="Mozilla/5.0 (Windows NT 10.0; Win64; x64) AppleWebKit/537.36 (KHTML, like Gecko) Chrome/114.0.0.0 Safari/537.36" version="26.2.14">
  <diagram name="Page-1" id="ANzGSLheGrox4YKzOD32">
    <mxGraphModel dx="2137" dy="2001" grid="1" gridSize="10" guides="1" tooltips="1" connect="1" arrows="1" fold="1" page="1" pageScale="1" pageWidth="827" pageHeight="1169" math="0" shadow="0">
      <root>
        <mxCell id="0" />
        <mxCell id="1" parent="0" />
        <mxCell id="-NAmM5EXCF0Gv3XTNw3D-2" value="几个椅子" style="rounded=0;whiteSpace=wrap;html=1;direction=south;" vertex="1" parent="1">
          <mxGeometry x="300" y="210" width="30" height="110" as="geometry" />
        </mxCell>
        <mxCell id="-NAmM5EXCF0Gv3XTNw3D-3" value="门" style="rounded=0;whiteSpace=wrap;html=1;" vertex="1" parent="1">
          <mxGeometry x="260" y="340" width="160" height="20" as="geometry" />
        </mxCell>
        <mxCell id="-NAmM5EXCF0Gv3XTNw3D-4" value="储物柜 手环开锁" style="rounded=0;whiteSpace=wrap;html=1;direction=south;" vertex="1" parent="1">
          <mxGeometry x="240" y="120" width="30" height="120" as="geometry" />
        </mxCell>
        <mxCell id="-NAmM5EXCF0Gv3XTNw3D-5" value="储物柜" style="rounded=0;whiteSpace=wrap;html=1;direction=south;" vertex="1" parent="1">
          <mxGeometry x="390" y="120" width="30" height="120" as="geometry" />
        </mxCell>
        <mxCell id="-NAmM5EXCF0Gv3XTNw3D-6" value="照相 检查信息" style="rounded=0;whiteSpace=wrap;html=1;" vertex="1" parent="1">
          <mxGeometry x="230" y="-180" width="110" height="60" as="geometry" />
        </mxCell>
        <mxCell id="-NAmM5EXCF0Gv3XTNw3D-7" value="口语考试的房间" style="rounded=0;whiteSpace=wrap;html=1;" vertex="1" parent="1">
          <mxGeometry x="470" y="-190" width="130" height="230" as="geometry" />
        </mxCell>
        <mxCell id="-NAmM5EXCF0Gv3XTNw3D-8" value="机考房间 好像有六排或者八排，每排四五个人" style="rounded=0;whiteSpace=wrap;html=1;" vertex="1" parent="1">
          <mxGeometry x="-340" y="-220" width="340" height="250" as="geometry" />
        </mxCell>
        <mxCell id="-NAmM5EXCF0Gv3XTNw3D-10" value="厕所" style="rounded=0;whiteSpace=wrap;html=1;" vertex="1" parent="1">
          <mxGeometry x="-370" y="180" width="210" height="160" as="geometry" />
        </mxCell>
        <mxCell id="-NAmM5EXCF0Gv3XTNw3D-17" value="&lt;font style=&quot;font-size: 15px;&quot;&gt;走廊&lt;/font&gt;" style="line;strokeWidth=2;html=1;" vertex="1" parent="1">
          <mxGeometry x="-390" y="110" width="530" height="10" as="geometry" />
        </mxCell>
        <mxCell id="-NAmM5EXCF0Gv3XTNw3D-20" value="" style="line;strokeWidth=2;direction=south;html=1;" vertex="1" parent="1">
          <mxGeometry x="130" y="-170" width="10" height="280" as="geometry" />
        </mxCell>
      </root>
    </mxGraphModel>
  </diagram>
</mxfile>
